<svg width="65" height="48" viewBox="0 0 65 48" fill="none" xmlns="http://www.w3.org/2000/svg">
<path d="M64.4242 0H0V5.87467H64.4242V0Z" fill="black"/>
<path d="M12.7784 10.1472H0V16.0219H12.7784V10.1472Z" fill="black"/>
<path d="M12.7783 44.06L12.7783 10.1472H6.92158L6.92158 44.06H12.7783Z" fill="black"/>
<path d="M22.6284 44.06L22.6284 10.1472H16.7717V44.06H22.6284Z" fill="black"/>
<path d="M29.5499 10.1472H16.7715V16.0219H29.5499V10.1472Z" fill="black"/>
<path d="M38.3353 10.1472H32.4785V44.06H38.3353V10.1472Z" fill="black"/>
<path d="M64.4246 9.88013H58.5679V34.1798H64.4246V9.88013Z" fill="black"/>
<path d="M48.1849 19.7603H42.3281V44.06H48.1849V19.7603Z" fill="black"/>
<path d="M32.4785 9.87997V15.7546L60.4312 15.7546V9.87997L32.4785 9.87997Z" fill="black"/>
<path d="M42.3281 19.7601V25.6348H54.5741V19.7601H42.3281Z" fill="black"/>
<path d="M52.1787 29.6405V35.5151H64.4247V29.6405H52.1787Z" fill="black"/>
<path d="M52.1787 37.5178V34.4469V29.6404L64.6912 44.0368H58.1792L52.1787 37.5178Z" fill="black"/>
</svg>
